<svg width="48" height="48" viewBox="0 0 48 48" fill="none" xmlns="http://www.w3.org/2000/svg" aria-hidden="true">
  <circle cx="24" cy="24" r="24" fill="hsl(187 55% 42% / 0.2)" />
  <path
    d="M10 30c3.5-4 6.5-6 10-6s6.5 2 10 6c2-2.5 3.5-5.2 4.5-8.1-2.8-1.6-5.6-2.4-8.5-2.4-4.2 0-8 1.6-11 4.8-1.6 1.8-3 3.8-4 5.7Z"
    fill="hsl(187 55% 52%)"
  />
  <path
    d="M8 34c4-5.5 8.3-8.2 13-8.2 4.6 0 9 2.7 13 8.2 1.2-1.8 2.2-3.7 3-5.6C30 24.5 25.8 22.5 21 22.5c-5.4 0-10.3 2.6-14.7 7.8-.6.8-1.1 1.7-1.6 2.6l.3.6Z"
    fill="hsl(187 55% 42%)"
  />
</svg>
