<svg width="129" height="101" viewBox="0 0 129 101" fill="none" xmlns="http://www.w3.org/2000/svg">
<g clip-path="url(#clip0_2281_157)">
<path d="M59.6243 66.0789C71.5059 67.805 82.8486 62.9772 89.9884 54.3195C93.3292 49.249 96.5892 42.4523 95.9696 35.7095C96.1043 31.1784 94.838 28.7241 92.8981 25.973C90.6619 22.7905 84.061 21.4959 77.3793 32.1494C70.7785 42.6681 71.6676 47.8465 64.7973 53.1598C57.927 58.4461 49.8712 56.9357 49.8712 56.9357C52.1882 56.9627 62.8574 55.1826 66.3599 46.1743C70.6438 35.2241 73.4458 26.7822 82.1212 21.7656C87.6983 18.529 92.979 19.8776 96.212 23.7884C95.7271 22.1432 95.1074 20.5249 94.38 18.9606C86.6744 14.4025 72.9339 18.2593 65.2822 39.3237C57.8192 59.9025 38.3668 52.8361 37.4238 52.4855C42.462 59.6328 50.3023 64.7573 59.6243 66.0789Z" fill="#25ACB4"/>
<path d="M37.369 52.5125C57.8182 55.6681 54.0733 34.7657 69.1879 22.4669C83.656 10.6806 93.8132 18.5831 94.3521 19.0146C89.745 9.30509 80.5307 1.99597 69.134 0.350738C58.0877 -1.24055 47.4993 2.83206 40.3326 10.357C36.7763 15.5893 32.681 23.3839 32.7349 31.4213C32.8157 45.2843 41.087 52.1619 47.5263 39.6474C52.2142 30.5312 58.5457 11.0043 83.656 12.2719C83.656 12.2719 71.478 12.7304 62.7487 23.4648C54.0194 34.1993 53.8038 41.2387 48.8734 46.1744C43.6466 51.4067 38.312 51.4877 34.567 47.7387C35.3483 49.4109 36.2913 51.0022 37.369 52.5125Z" fill="#25ACB4"/>
<path d="M7.19361 84.8984C11.3697 84.8984 13.8753 87.0561 13.8753 90.886V91.3715H10.1034V90.886C10.1034 89.0789 9.10652 88.1889 7.16667 88.1889H6.73559C4.84962 88.1889 3.74499 89.1598 3.74499 91.1827V94.7428C3.74499 96.8735 4.87657 97.7905 6.76253 97.7905H7.16667C9.10652 97.7905 10.1842 96.9005 10.1842 95.0125V94.6889H13.9292V95.0125C13.9292 99.0312 11.3966 101.054 7.19361 101.054H6.76253C2.64035 101 0 98.9503 0 94.7159V91.1557C0 87.0831 2.64035 84.8984 6.76253 84.8984H7.19361Z" fill="white"/>
<path d="M23.6551 85.1143V94.7159C23.6551 96.5769 24.3556 97.7097 26.4571 97.7097H26.8343C28.9358 97.7097 29.6633 96.5769 29.6633 94.7159V85.1143H33.3813V94.7159C33.3813 99.0043 30.8488 101 26.8343 101H26.4571C22.4427 101 19.9102 99.0043 19.9102 94.7159V85.1143H23.6551Z" fill="white"/>
<path d="M47.0683 85.1143C50.463 85.1143 52.4837 86.7325 52.4837 89.7533V90.5354C52.4837 92.4504 51.5946 93.8528 50.0589 94.608L53.0764 100.784H49.089L46.3678 95.2284H43.458V100.784H39.713V85.1412H47.0683V85.1143ZM43.4311 92.2346H46.5564C47.9035 92.2346 48.7656 91.6682 48.7656 90.4006V89.8881C48.7656 88.5935 47.9035 88.0811 46.5564 88.0811H43.4311V92.2346Z" fill="white"/>
<path d="M66.0892 85.1143C69.484 85.1143 71.5047 86.7325 71.5047 89.7533V90.5354C71.5047 92.4504 70.6156 93.8528 69.0798 94.608L72.0974 100.784H68.1099L65.3618 95.2284H62.452V100.784H58.707V85.1412H66.0892V85.1143ZM62.4251 92.2346H65.5504C66.8975 92.2346 67.7597 91.6682 67.7597 90.4006V89.8881C67.7597 88.5935 66.8975 88.0811 65.5504 88.0811H62.4251V92.2346Z" fill="white"/>
<path d="M89.1802 85.1143V88.2159H81.4208V91.3176H88.1294V94.2844H81.4208V97.6827H89.2879V100.757H77.6758V85.1143H89.1802Z" fill="white"/>
<path d="M100.496 85.1143L105.83 95.579H106.315V85.1143H109.683V100.757H104.699L99.3641 90.2927H98.8791V100.757H95.4844V85.1143H100.496Z" fill="white"/>
<path d="M128.999 85.1143V88.2159H123.961V100.757H120.216V88.2159H115.178V85.1143H128.999Z" fill="white"/>
</g>
<defs>
<clipPath id="clip0_2281_157">
<rect width="129" height="101" fill="white"/>
</clipPath>
</defs>
</svg>
